<svg width="1728" height="1117" viewBox="0 0 1728 1117" fill="none" xmlns="http://www.w3.org/2000/svg">
<g filter="url(#filter0_f_0_1)">
<circle cx="1018" cy="580" r="460" fill="#71ADF0"/>
</g>
<path opacity="0.18" d="M-960.523 683H-1013.36C-1016.49 667.801 -1021.96 654.449 -1029.77 642.943C-1037.44 631.438 -1046.82 621.778 -1057.89 613.966C-1068.83 606.011 -1080.98 600.045 -1094.33 596.068C-1107.68 592.091 -1121.6 590.102 -1136.09 590.102C-1162.51 590.102 -1186.45 596.778 -1207.89 610.131C-1229.2 623.483 -1246.18 643.156 -1258.82 669.151C-1271.32 695.145 -1277.57 727.034 -1277.57 764.818C-1277.57 802.602 -1271.32 834.491 -1258.82 860.486C-1246.18 886.48 -1229.2 906.153 -1207.89 919.506C-1186.45 932.858 -1162.51 939.534 -1136.09 939.534C-1121.6 939.534 -1107.68 937.545 -1094.33 933.568C-1080.98 929.591 -1068.83 923.696 -1057.89 915.884C-1046.82 907.929 -1037.44 898.199 -1029.77 886.693C-1021.96 875.045 -1016.49 861.693 -1013.36 846.636H-960.523C-964.5 868.937 -971.744 888.895 -982.256 906.509C-992.767 924.122 -1005.84 939.108 -1021.46 951.466C-1037.09 963.682 -1054.63 972.986 -1074.09 979.378C-1093.41 985.77 -1114.07 988.966 -1136.09 988.966C-1173.31 988.966 -1206.4 979.875 -1235.38 961.693C-1264.36 943.511 -1287.16 917.659 -1303.78 884.136C-1320.39 850.614 -1328.7 810.841 -1328.7 764.818C-1328.7 718.795 -1320.39 679.023 -1303.78 645.5C-1287.16 611.977 -1264.36 586.125 -1235.38 567.943C-1206.4 549.761 -1173.31 540.67 -1136.09 540.67C-1114.07 540.67 -1093.41 543.866 -1074.09 550.259C-1054.63 556.651 -1037.09 566.026 -1021.46 578.384C-1005.84 590.599 -992.767 605.514 -982.256 623.128C-971.744 640.599 -964.5 660.557 -960.523 683ZM-857.238 983H-912.636L-752.408 546.636H-697.863L-537.636 983H-593.033L-723.431 615.67H-726.84L-857.238 983ZM-836.783 812.545H-613.488V859.42H-836.783V812.545ZM-231.031 655.727C-233.587 634.136 -243.957 617.375 -262.138 605.443C-280.32 593.511 -302.621 587.545 -329.042 587.545C-348.36 587.545 -365.263 590.67 -379.752 596.92C-394.099 603.17 -405.32 611.764 -413.417 622.702C-421.371 633.639 -425.349 646.068 -425.349 659.989C-425.349 671.636 -422.579 681.651 -417.039 690.031C-411.357 698.27 -404.113 705.159 -395.306 710.699C-386.499 716.097 -377.266 720.571 -367.607 724.122C-357.948 727.531 -349.07 730.301 -340.974 732.432L-296.656 744.364C-285.292 747.347 -272.65 751.466 -258.729 756.722C-244.667 761.977 -231.244 769.151 -218.46 778.241C-205.533 787.19 -194.88 798.696 -186.499 812.759C-178.119 826.821 -173.928 844.08 -173.928 864.534C-173.928 888.114 -180.107 909.42 -192.465 928.455C-204.681 947.489 -222.579 962.616 -246.158 973.838C-269.596 985.06 -298.076 990.67 -331.599 990.67C-362.849 990.67 -389.908 985.628 -412.778 975.543C-435.505 965.457 -453.403 951.395 -466.471 933.355C-479.397 915.315 -486.712 894.364 -488.417 870.5H-433.871C-432.451 886.977 -426.911 900.614 -417.252 911.409C-407.451 922.062 -395.093 930.017 -380.178 935.273C-365.121 940.386 -348.928 942.943 -331.599 942.943C-311.428 942.943 -293.317 939.676 -277.266 933.142C-261.215 926.466 -248.502 917.233 -239.127 905.443C-229.752 893.511 -225.065 879.591 -225.065 863.682C-225.065 849.193 -229.113 837.403 -237.21 828.312C-245.306 819.222 -255.96 811.835 -269.17 806.153C-282.38 800.472 -296.656 795.5 -311.996 791.239L-365.69 775.898C-399.781 766.097 -426.769 752.105 -446.656 733.923C-466.542 715.741 -476.485 691.949 -476.485 662.545C-476.485 638.114 -469.88 616.807 -456.67 598.625C-443.317 580.301 -425.42 566.097 -402.977 556.011C-380.391 545.784 -355.178 540.67 -327.337 540.67C-299.212 540.67 -274.212 545.713 -252.337 555.798C-230.462 565.741 -213.133 579.378 -200.349 596.707C-187.423 614.037 -180.604 633.71 -179.894 655.727H-231.031ZM-87.0497 983V546.636H60.3935C94.6264 546.636 122.609 552.815 144.342 565.173C166.217 577.389 182.411 593.938 192.922 614.818C203.433 635.699 208.689 658.994 208.689 684.705C208.689 710.415 203.433 733.781 192.922 754.804C182.553 775.827 166.501 792.588 144.768 805.088C123.036 817.446 95.1946 823.625 61.2457 823.625H-44.4361V776.75H59.5412C82.9787 776.75 101.8 772.702 116.004 764.605C130.209 756.509 140.507 745.571 146.899 731.793C153.433 717.872 156.7 702.176 156.7 684.705C156.7 667.233 153.433 651.608 146.899 637.83C140.507 624.051 130.138 613.256 115.791 605.443C101.445 597.489 82.4105 593.511 58.6889 593.511H-34.2088V983H-87.0497ZM293.81 983V546.636H441.253C475.486 546.636 503.469 552.815 525.202 565.173C547.077 577.389 563.27 593.938 573.781 614.818C584.293 635.699 589.548 658.994 589.548 684.705C589.548 710.415 584.293 733.781 573.781 754.804C563.412 775.827 547.361 792.588 525.628 805.088C503.895 817.446 476.054 823.625 442.105 823.625H336.423V776.75H440.401C463.838 776.75 482.659 772.702 496.864 764.605C511.068 756.509 521.366 745.571 527.759 731.793C534.293 717.872 537.56 702.176 537.56 684.705C537.56 667.233 534.293 651.608 527.759 637.83C521.366 624.051 510.997 613.256 496.651 605.443C482.304 597.489 463.27 593.511 439.548 593.511H346.651V983H293.81ZM674.669 983V546.636H938.021V593.511H727.51V740.955H924.385V787.83H727.51V936.125H941.43V983H674.669ZM1033.26 983V546.636H1180.71C1214.8 546.636 1242.78 552.46 1264.65 564.108C1286.53 575.614 1302.72 591.452 1313.23 611.622C1323.75 631.793 1329 654.733 1329 680.443C1329 706.153 1323.75 728.952 1313.23 748.838C1302.72 768.724 1286.6 784.349 1264.87 795.713C1243.13 806.935 1215.37 812.545 1181.56 812.545H1062.24V764.818H1179.85C1203.15 764.818 1221.9 761.409 1236.1 754.591C1250.45 747.773 1260.82 738.114 1267.21 725.614C1273.75 712.972 1277.01 697.915 1277.01 680.443C1277.01 662.972 1273.75 647.702 1267.21 634.634C1260.68 621.565 1250.24 611.48 1235.89 604.378C1221.54 597.134 1202.58 593.511 1179 593.511H1086.1V983H1033.26ZM1238.66 786.977L1346.05 983H1284.68L1179 786.977H1238.66Z" fill="white"/>
<path opacity="0.18" d="M302.647 140H249.806C246.681 124.801 241.213 111.449 233.4 99.9432C225.73 88.4375 216.355 78.7784 205.275 70.9659C194.338 63.0114 182.193 57.0455 168.84 53.0682C155.488 49.0909 141.568 47.1023 127.079 47.1023C100.659 47.1023 76.7239 53.7784 55.275 67.1307C33.9682 80.483 16.9938 100.156 4.35175 126.151C-8.14825 152.145 -14.3983 184.034 -14.3983 221.818C-14.3983 259.602 -8.14825 291.491 4.35175 317.486C16.9938 343.48 33.9682 363.153 55.275 376.506C76.7239 389.858 100.659 396.534 127.079 396.534C141.568 396.534 155.488 394.545 168.84 390.568C182.193 386.591 194.338 380.696 205.275 372.884C216.355 364.929 225.73 355.199 233.4 343.693C241.213 332.045 246.681 318.693 249.806 303.636H302.647C298.67 325.937 291.426 345.895 280.914 363.509C270.403 381.122 257.335 396.108 241.71 408.466C226.085 420.682 208.542 429.986 189.082 436.378C169.764 442.77 149.096 445.966 127.079 445.966C89.8631 445.966 56.7665 436.875 27.7892 418.693C-1.18803 400.511 -23.9863 374.659 -40.6056 341.136C-57.225 307.614 -65.5346 267.841 -65.5346 221.818C-65.5346 175.795 -57.225 136.023 -40.6056 102.5C-23.9863 68.9773 -1.18803 43.125 27.7892 24.9432C56.7665 6.76135 89.8631 -2.32956 127.079 -2.32956C149.096 -2.32956 169.764 0.866463 189.082 7.25851C208.542 13.6506 226.085 23.0256 241.71 35.3835C257.335 47.5994 270.403 62.5142 280.914 80.1278C291.426 97.5994 298.67 117.557 302.647 140ZM405.932 440H350.534L510.762 3.63635H565.307L725.534 440H670.137L539.739 72.6704H536.33L405.932 440ZM426.387 269.545H649.682V316.42H426.387V269.545ZM1032.14 112.727C1029.58 91.1364 1019.21 74.375 1001.03 62.4432C982.85 50.5114 960.548 44.5454 934.128 44.5454C914.81 44.5454 897.906 47.6704 883.418 53.9204C869.071 60.1704 857.85 68.7642 849.753 79.7017C841.798 90.6392 837.821 103.068 837.821 116.989C837.821 128.636 840.591 138.651 846.131 147.031C851.813 155.27 859.057 162.159 867.864 167.699C876.671 173.097 885.904 177.571 895.563 181.122C905.222 184.531 914.1 187.301 922.196 189.432L966.514 201.364C977.878 204.347 990.52 208.466 1004.44 213.722C1018.5 218.977 1031.93 226.151 1044.71 235.241C1057.64 244.19 1068.29 255.696 1076.67 269.759C1085.05 283.821 1089.24 301.08 1089.24 321.534C1089.24 345.114 1083.06 366.42 1070.7 385.455C1058.49 404.489 1040.59 419.616 1017.01 430.838C993.574 442.06 965.094 447.67 931.571 447.67C900.321 447.67 873.262 442.628 850.392 432.543C827.665 422.457 809.767 408.395 796.699 390.355C783.773 372.315 776.458 351.364 774.753 327.5H829.298C830.719 343.977 836.259 357.614 845.918 368.409C855.719 379.062 868.077 387.017 882.992 392.273C898.048 397.386 914.242 399.943 931.571 399.943C951.742 399.943 969.852 396.676 985.904 390.142C1001.95 383.466 1014.67 374.233 1024.04 362.443C1033.42 350.511 1038.11 336.591 1038.11 320.682C1038.11 306.193 1034.06 294.403 1025.96 285.312C1017.86 276.222 1007.21 268.835 994 263.153C980.79 257.472 966.514 252.5 951.173 248.239L897.48 232.898C863.389 223.097 836.401 209.105 816.514 190.923C796.628 172.741 786.685 148.949 786.685 119.545C786.685 95.1136 793.29 73.8068 806.5 55.625C819.852 37.3011 837.75 23.0966 860.193 13.0114C882.779 2.78408 907.992 -2.32956 935.833 -2.32956C963.958 -2.32956 988.958 2.71305 1010.83 12.7983C1032.71 22.7415 1050.04 36.3778 1062.82 53.7074C1075.75 71.0369 1082.57 90.7102 1083.28 112.727H1032.14ZM1176.12 440V3.63635H1323.56C1357.8 3.63635 1385.78 9.81533 1407.51 22.1733C1429.39 34.3892 1445.58 50.9375 1456.09 71.8182C1466.6 92.6989 1471.86 115.994 1471.86 141.705C1471.86 167.415 1466.6 190.781 1456.09 211.804C1445.72 232.827 1429.67 249.588 1407.94 262.088C1386.21 274.446 1358.36 280.625 1324.42 280.625H1218.73V233.75H1322.71C1346.15 233.75 1364.97 229.702 1379.17 221.605C1393.38 213.509 1403.68 202.571 1410.07 188.793C1416.6 174.872 1419.87 159.176 1419.87 141.705C1419.87 124.233 1416.6 108.608 1410.07 94.8295C1403.68 81.0511 1393.31 70.2557 1378.96 62.4432C1364.61 54.4886 1345.58 50.5114 1321.86 50.5114H1228.96V440H1176.12ZM1556.98 440V3.63635H1704.42C1738.66 3.63635 1766.64 9.81533 1788.37 22.1733C1810.25 34.3892 1826.44 50.9375 1836.95 71.8182C1847.46 92.6989 1852.72 115.994 1852.72 141.705C1852.72 167.415 1847.46 190.781 1836.95 211.804C1826.58 232.827 1810.53 249.588 1788.8 262.088C1767.06 274.446 1739.22 280.625 1705.28 280.625H1599.59V233.75H1703.57C1727.01 233.75 1745.83 229.702 1760.03 221.605C1774.24 213.509 1784.54 202.571 1790.93 188.793C1797.46 174.872 1800.73 159.176 1800.73 141.705C1800.73 124.233 1797.46 108.608 1790.93 94.8295C1784.54 81.0511 1774.17 70.2557 1759.82 62.4432C1745.47 54.4886 1726.44 50.5114 1702.72 50.5114H1609.82V440H1556.98ZM1937.84 440V3.63635H2201.19V50.5114H1990.68V197.955H2187.55V244.83H1990.68V393.125H2204.6V440H1937.84ZM2296.43 440V3.63635H2443.88C2477.97 3.63635 2505.95 9.46021 2527.82 21.1079C2549.7 32.6136 2565.89 48.4517 2576.4 68.6222C2586.92 88.7926 2592.17 111.733 2592.17 137.443C2592.17 163.153 2586.92 185.952 2576.4 205.838C2565.89 225.724 2549.77 241.349 2528.04 252.713C2506.3 263.935 2478.53 269.545 2444.73 269.545H2325.41V221.818H2443.02C2466.32 221.818 2485.07 218.409 2499.27 211.591C2513.62 204.773 2523.99 195.114 2530.38 182.614C2536.92 169.972 2540.18 154.915 2540.18 137.443C2540.18 119.972 2536.92 104.702 2530.38 91.6335C2523.85 78.5653 2513.41 68.4801 2499.06 61.3778C2484.71 54.1335 2465.75 50.5114 2442.17 50.5114H2349.27V440H2296.43ZM2501.83 243.977L2609.22 440H2547.85L2442.17 243.977H2501.83Z" fill="white"/>
<path opacity="0.32" d="M291.151 1028.26H288.048C287.929 1027.6 287.707 1027.01 287.382 1026.51C287.057 1026 286.66 1025.58 286.189 1025.23C285.718 1024.87 285.191 1024.61 284.608 1024.43C284.031 1024.25 283.418 1024.16 282.768 1024.16C281.595 1024.16 280.545 1024.46 279.616 1025.05C278.695 1025.64 277.966 1026.5 277.429 1027.64C276.899 1028.78 276.634 1030.17 276.634 1031.82C276.634 1033.48 276.899 1034.87 277.429 1036.01C277.966 1037.15 278.698 1038.02 279.626 1038.6C280.554 1039.18 281.598 1039.47 282.759 1039.47C283.402 1039.47 284.011 1039.39 284.588 1039.22C285.171 1039.04 285.698 1038.78 286.169 1038.43C286.64 1038.09 287.037 1037.66 287.362 1037.17C287.694 1036.66 287.922 1036.09 288.048 1035.44L291.151 1035.45C290.985 1036.45 290.663 1037.37 290.186 1038.21C289.715 1039.05 289.109 1039.77 288.366 1040.38C287.631 1040.98 286.789 1041.45 285.841 1041.78C284.893 1042.11 283.859 1042.28 282.739 1042.28C280.975 1042.28 279.404 1041.86 278.026 1041.03C276.647 1040.18 275.56 1038.98 274.764 1037.42C273.975 1035.85 273.581 1033.99 273.581 1031.82C273.581 1029.64 273.979 1027.78 274.774 1026.22C275.57 1024.66 276.657 1023.46 278.036 1022.62C279.414 1021.78 280.982 1021.36 282.739 1021.36C283.819 1021.36 284.827 1021.51 285.761 1021.83C286.703 1022.13 287.548 1022.58 288.297 1023.18C289.046 1023.77 289.666 1024.49 290.156 1025.35C290.647 1026.19 290.978 1027.16 291.151 1028.26ZM296.411 1042H293.149L300.477 1021.64H304.027L311.355 1042H308.094L302.337 1025.34H302.178L296.411 1042ZM296.957 1034.03H307.537V1036.61H296.957V1034.03ZM325.238 1026.99C325.132 1026.04 324.695 1025.32 323.926 1024.8C323.157 1024.27 322.189 1024.01 321.022 1024.01C320.187 1024.01 319.465 1024.15 318.855 1024.41C318.245 1024.67 317.771 1025.03 317.433 1025.48C317.101 1025.94 316.936 1026.45 316.936 1027.03C316.936 1027.51 317.048 1027.93 317.274 1028.28C317.506 1028.63 317.807 1028.92 318.179 1029.16C318.556 1029.4 318.961 1029.59 319.392 1029.75C319.823 1029.9 320.237 1030.03 320.635 1030.13L322.623 1030.64C323.273 1030.8 323.939 1031.02 324.622 1031.29C325.305 1031.56 325.938 1031.92 326.521 1032.37C327.104 1032.81 327.575 1033.36 327.933 1034.02C328.297 1034.67 328.48 1035.46 328.48 1036.37C328.48 1037.53 328.181 1038.55 327.585 1039.44C326.995 1040.34 326.136 1041.05 325.01 1041.56C323.889 1042.08 322.534 1042.34 320.943 1042.34C319.418 1042.34 318.099 1042.1 316.985 1041.61C315.872 1041.13 315 1040.44 314.37 1039.55C313.741 1038.66 313.393 1037.6 313.326 1036.37H316.409C316.468 1037.11 316.707 1037.72 317.125 1038.21C317.549 1038.7 318.089 1039.06 318.745 1039.3C319.408 1039.53 320.134 1039.64 320.923 1039.64C321.791 1039.64 322.564 1039.51 323.24 1039.24C323.922 1038.96 324.459 1038.57 324.85 1038.08C325.242 1037.59 325.437 1037.01 325.437 1036.34C325.437 1035.74 325.265 1035.25 324.92 1034.86C324.582 1034.48 324.121 1034.16 323.538 1033.91C322.961 1033.65 322.308 1033.43 321.579 1033.24L319.173 1032.58C317.542 1032.14 316.25 1031.49 315.295 1030.62C314.347 1029.76 313.873 1028.62 313.873 1027.2C313.873 1026.03 314.191 1025.01 314.828 1024.13C315.464 1023.26 316.326 1022.58 317.413 1022.09C318.5 1021.6 319.726 1021.36 321.092 1021.36C322.471 1021.36 323.687 1021.6 324.741 1022.08C325.802 1022.57 326.637 1023.23 327.247 1024.08C327.857 1024.92 328.175 1025.89 328.201 1026.99H325.238ZM332.151 1042V1021.64H339.41C340.994 1021.64 342.307 1021.92 343.347 1022.5C344.388 1023.08 345.167 1023.87 345.684 1024.87C346.201 1025.86 346.46 1026.98 346.46 1028.23C346.46 1029.48 346.198 1030.61 345.674 1031.61C345.157 1032.6 344.375 1033.39 343.327 1033.98C342.287 1034.55 340.978 1034.84 339.4 1034.84H334.408V1032.24H339.121C340.122 1032.24 340.934 1032.06 341.558 1031.72C342.181 1031.37 342.638 1030.89 342.93 1030.29C343.221 1029.68 343.367 1029 343.367 1028.23C343.367 1027.46 343.221 1026.78 342.93 1026.18C342.638 1025.58 342.177 1025.12 341.548 1024.78C340.924 1024.44 340.103 1024.27 339.082 1024.27H335.224V1042H332.151ZM350.061 1042V1021.64H357.32C358.904 1021.64 360.217 1021.92 361.257 1022.5C362.298 1023.08 363.077 1023.87 363.594 1024.87C364.111 1025.86 364.37 1026.98 364.37 1028.23C364.37 1029.48 364.108 1030.61 363.584 1031.61C363.067 1032.6 362.285 1033.39 361.238 1033.98C360.197 1034.55 358.888 1034.84 357.31 1034.84H352.319V1032.24H357.032C358.033 1032.24 358.845 1032.06 359.468 1031.72C360.091 1031.37 360.548 1030.89 360.84 1030.29C361.132 1029.68 361.277 1029 361.277 1028.23C361.277 1027.46 361.132 1026.78 360.84 1026.18C360.548 1025.58 360.087 1025.12 359.458 1024.78C358.835 1024.44 358.013 1024.27 356.992 1024.27H353.134V1042H350.061ZM367.972 1042V1021.64H380.739V1024.28H371.044V1030.49H380.072V1033.12H371.044V1039.36H380.858V1042H367.972ZM384.843 1042V1021.64H392.101C393.679 1021.64 394.988 1021.91 396.029 1022.45C397.076 1023 397.858 1023.75 398.375 1024.71C398.892 1025.66 399.151 1026.77 399.151 1028.02C399.151 1029.27 398.889 1030.36 398.365 1031.31C397.848 1032.25 397.066 1032.98 396.019 1033.51C394.978 1034.03 393.669 1034.29 392.091 1034.29H386.593V1031.65H391.813C392.807 1031.65 393.616 1031.51 394.239 1031.22C394.869 1030.94 395.329 1030.52 395.621 1029.98C395.913 1029.44 396.059 1028.78 396.059 1028.02C396.059 1027.25 395.909 1026.58 395.611 1026.02C395.319 1025.46 394.859 1025.03 394.229 1024.73C393.606 1024.42 392.787 1024.27 391.773 1024.27H387.915V1042H384.843ZM394.895 1032.81L399.926 1042H396.426L391.495 1032.81H394.895Z" fill="white"/>
<path opacity="0.32" d="M502.151 1028.26H499.048C498.929 1027.6 498.707 1027.01 498.382 1026.51C498.057 1026 497.66 1025.58 497.189 1025.23C496.718 1024.87 496.191 1024.61 495.608 1024.43C495.031 1024.25 494.418 1024.16 493.768 1024.16C492.595 1024.16 491.545 1024.46 490.616 1025.05C489.695 1025.64 488.966 1026.5 488.429 1027.64C487.899 1028.78 487.634 1030.17 487.634 1031.82C487.634 1033.48 487.899 1034.87 488.429 1036.01C488.966 1037.15 489.698 1038.02 490.626 1038.6C491.554 1039.18 492.598 1039.47 493.759 1039.47C494.402 1039.47 495.011 1039.39 495.588 1039.22C496.171 1039.04 496.698 1038.78 497.169 1038.43C497.64 1038.09 498.037 1037.66 498.362 1037.17C498.694 1036.66 498.922 1036.09 499.048 1035.44L502.151 1035.45C501.985 1036.45 501.663 1037.37 501.186 1038.21C500.715 1039.05 500.109 1039.77 499.366 1040.38C498.631 1040.98 497.789 1041.45 496.841 1041.78C495.893 1042.11 494.859 1042.28 493.739 1042.28C491.975 1042.28 490.404 1041.86 489.026 1041.03C487.647 1040.18 486.56 1038.98 485.764 1037.42C484.975 1035.85 484.581 1033.99 484.581 1031.82C484.581 1029.64 484.979 1027.78 485.774 1026.22C486.57 1024.66 487.657 1023.46 489.036 1022.62C490.414 1021.78 491.982 1021.36 493.739 1021.36C494.819 1021.36 495.827 1021.51 496.761 1021.83C497.703 1022.13 498.548 1022.58 499.297 1023.18C500.046 1023.77 500.666 1024.49 501.156 1025.35C501.647 1026.19 501.978 1027.16 502.151 1028.26ZM507.411 1042H504.149L511.477 1021.64H515.027L522.355 1042H519.094L513.337 1025.34H513.178L507.411 1042ZM507.957 1034.03H518.537V1036.61H507.957V1034.03ZM536.238 1026.99C536.132 1026.04 535.695 1025.32 534.926 1024.8C534.157 1024.27 533.189 1024.01 532.022 1024.01C531.187 1024.01 530.465 1024.15 529.855 1024.41C529.245 1024.67 528.771 1025.03 528.433 1025.48C528.101 1025.94 527.936 1026.45 527.936 1027.03C527.936 1027.51 528.048 1027.93 528.274 1028.28C528.506 1028.63 528.807 1028.92 529.179 1029.16C529.556 1029.4 529.961 1029.59 530.392 1029.75C530.823 1029.9 531.237 1030.03 531.635 1030.13L533.623 1030.64C534.273 1030.8 534.939 1031.02 535.622 1031.29C536.305 1031.56 536.938 1031.92 537.521 1032.37C538.104 1032.81 538.575 1033.36 538.933 1034.02C539.297 1034.67 539.48 1035.46 539.48 1036.37C539.48 1037.53 539.181 1038.55 538.585 1039.44C537.995 1040.34 537.136 1041.05 536.01 1041.56C534.889 1042.08 533.534 1042.34 531.943 1042.34C530.418 1042.34 529.099 1042.1 527.985 1041.61C526.872 1041.13 526 1040.44 525.37 1039.55C524.741 1038.66 524.393 1037.6 524.326 1036.37H527.409C527.468 1037.11 527.707 1037.72 528.125 1038.21C528.549 1038.7 529.089 1039.06 529.745 1039.3C530.408 1039.53 531.134 1039.64 531.923 1039.64C532.791 1039.64 533.564 1039.51 534.24 1039.24C534.922 1038.96 535.459 1038.57 535.85 1038.08C536.242 1037.59 536.437 1037.01 536.437 1036.34C536.437 1035.74 536.265 1035.25 535.92 1034.86C535.582 1034.48 535.121 1034.16 534.538 1033.91C533.961 1033.65 533.308 1033.43 532.579 1033.24L530.173 1032.58C528.542 1032.14 527.25 1031.49 526.295 1030.62C525.347 1029.76 524.873 1028.62 524.873 1027.2C524.873 1026.03 525.191 1025.01 525.828 1024.13C526.464 1023.26 527.326 1022.58 528.413 1022.09C529.5 1021.6 530.726 1021.36 532.092 1021.36C533.471 1021.36 534.687 1021.6 535.741 1022.08C536.802 1022.57 537.637 1023.23 538.247 1024.08C538.857 1024.92 539.175 1025.89 539.201 1026.99H536.238ZM543.151 1042V1021.64H550.41C551.994 1021.64 553.307 1021.92 554.347 1022.5C555.388 1023.08 556.167 1023.87 556.684 1024.87C557.201 1025.86 557.46 1026.98 557.46 1028.23C557.46 1029.48 557.198 1030.61 556.674 1031.61C556.157 1032.6 555.375 1033.39 554.327 1033.98C553.287 1034.55 551.978 1034.84 550.4 1034.84H545.408V1032.24H550.121C551.122 1032.24 551.934 1032.06 552.558 1031.72C553.181 1031.37 553.638 1030.89 553.93 1030.29C554.221 1029.68 554.367 1029 554.367 1028.23C554.367 1027.46 554.221 1026.78 553.93 1026.18C553.638 1025.58 553.177 1025.12 552.548 1024.78C551.924 1024.44 551.103 1024.27 550.082 1024.27H546.224V1042H543.151ZM561.061 1042V1021.64H568.32C569.904 1021.64 571.217 1021.92 572.257 1022.5C573.298 1023.08 574.077 1023.87 574.594 1024.87C575.111 1025.86 575.37 1026.98 575.37 1028.23C575.37 1029.48 575.108 1030.61 574.584 1031.61C574.067 1032.6 573.285 1033.39 572.238 1033.98C571.197 1034.55 569.888 1034.84 568.31 1034.84H563.319V1032.24H568.032C569.033 1032.24 569.845 1032.06 570.468 1031.72C571.091 1031.37 571.548 1030.89 571.84 1030.29C572.132 1029.68 572.277 1029 572.277 1028.23C572.277 1027.46 572.132 1026.78 571.84 1026.18C571.548 1025.58 571.087 1025.12 570.458 1024.78C569.835 1024.44 569.013 1024.27 567.992 1024.27H564.134V1042H561.061ZM578.972 1042V1021.64H591.739V1024.28H582.044V1030.49H591.072V1033.12H582.044V1039.36H591.858V1042H578.972ZM595.843 1042V1021.64H603.101C604.679 1021.64 605.988 1021.91 607.029 1022.45C608.076 1023 608.858 1023.75 609.375 1024.71C609.892 1025.66 610.151 1026.77 610.151 1028.02C610.151 1029.27 609.889 1030.36 609.365 1031.31C608.848 1032.25 608.066 1032.98 607.019 1033.51C605.978 1034.03 604.669 1034.29 603.091 1034.29H597.593V1031.65H602.813C603.807 1031.65 604.616 1031.51 605.239 1031.22C605.869 1030.94 606.329 1030.52 606.621 1029.98C606.913 1029.44 607.059 1028.78 607.059 1028.02C607.059 1027.25 606.909 1026.58 606.611 1026.02C606.319 1025.46 605.859 1025.03 605.229 1024.73C604.606 1024.42 603.787 1024.27 602.773 1024.27H598.915V1042H595.843ZM605.895 1032.81L610.926 1042H607.426L602.495 1032.81H605.895Z" fill="white"/>
<path opacity="0.32" d="M713.151 1028.26H710.048C709.929 1027.6 709.707 1027.01 709.382 1026.51C709.057 1026 708.66 1025.58 708.189 1025.23C707.718 1024.87 707.191 1024.61 706.608 1024.43C706.031 1024.25 705.418 1024.16 704.768 1024.16C703.595 1024.16 702.545 1024.46 701.616 1025.05C700.695 1025.64 699.966 1026.5 699.429 1027.64C698.899 1028.78 698.634 1030.17 698.634 1031.82C698.634 1033.48 698.899 1034.87 699.429 1036.01C699.966 1037.15 700.698 1038.02 701.626 1038.6C702.554 1039.18 703.598 1039.47 704.759 1039.47C705.402 1039.47 706.011 1039.39 706.588 1039.22C707.171 1039.04 707.698 1038.78 708.169 1038.43C708.64 1038.09 709.037 1037.66 709.362 1037.17C709.694 1036.66 709.922 1036.09 710.048 1035.44L713.151 1035.45C712.985 1036.45 712.663 1037.37 712.186 1038.21C711.715 1039.05 711.109 1039.77 710.366 1040.38C709.631 1040.98 708.789 1041.45 707.841 1041.78C706.893 1042.11 705.859 1042.28 704.739 1042.28C702.975 1042.28 701.404 1041.86 700.026 1041.03C698.647 1040.18 697.56 1038.98 696.764 1037.42C695.975 1035.85 695.581 1033.99 695.581 1031.82C695.581 1029.64 695.979 1027.78 696.774 1026.22C697.57 1024.66 698.657 1023.46 700.036 1022.62C701.414 1021.78 702.982 1021.36 704.739 1021.36C705.819 1021.36 706.827 1021.51 707.761 1021.83C708.703 1022.13 709.548 1022.58 710.297 1023.18C711.046 1023.77 711.666 1024.49 712.156 1025.35C712.647 1026.19 712.978 1027.16 713.151 1028.26ZM718.411 1042H715.149L722.477 1021.64H726.027L733.355 1042H730.094L724.337 1025.34H724.178L718.411 1042ZM718.957 1034.03H729.537V1036.61H718.957V1034.03ZM747.238 1026.99C747.132 1026.04 746.695 1025.32 745.926 1024.8C745.157 1024.27 744.189 1024.01 743.022 1024.01C742.187 1024.01 741.465 1024.15 740.855 1024.41C740.245 1024.67 739.771 1025.03 739.433 1025.48C739.101 1025.94 738.936 1026.45 738.936 1027.03C738.936 1027.51 739.048 1027.93 739.274 1028.28C739.506 1028.63 739.807 1028.92 740.179 1029.16C740.556 1029.4 740.961 1029.59 741.392 1029.75C741.823 1029.9 742.237 1030.03 742.635 1030.13L744.623 1030.64C745.273 1030.8 745.939 1031.02 746.622 1031.29C747.305 1031.56 747.938 1031.92 748.521 1032.37C749.104 1032.81 749.575 1033.36 749.933 1034.02C750.297 1034.67 750.48 1035.46 750.48 1036.37C750.48 1037.53 750.181 1038.55 749.585 1039.44C748.995 1040.34 748.136 1041.05 747.01 1041.56C745.889 1042.08 744.534 1042.34 742.943 1042.34C741.418 1042.34 740.099 1042.1 738.985 1041.61C737.872 1041.13 737 1040.44 736.37 1039.55C735.741 1038.66 735.393 1037.6 735.326 1036.37H738.409C738.468 1037.11 738.707 1037.72 739.125 1038.21C739.549 1038.7 740.089 1039.06 740.745 1039.3C741.408 1039.53 742.134 1039.64 742.923 1039.64C743.791 1039.64 744.564 1039.51 745.24 1039.24C745.922 1038.96 746.459 1038.57 746.85 1038.08C747.242 1037.59 747.437 1037.01 747.437 1036.34C747.437 1035.74 747.265 1035.25 746.92 1034.86C746.582 1034.48 746.121 1034.16 745.538 1033.91C744.961 1033.65 744.308 1033.43 743.579 1033.24L741.173 1032.58C739.542 1032.14 738.25 1031.49 737.295 1030.62C736.347 1029.76 735.873 1028.62 735.873 1027.2C735.873 1026.03 736.191 1025.01 736.828 1024.13C737.464 1023.26 738.326 1022.58 739.413 1022.09C740.5 1021.6 741.726 1021.36 743.092 1021.36C744.471 1021.36 745.687 1021.6 746.741 1022.08C747.802 1022.57 748.637 1023.23 749.247 1024.08C749.857 1024.92 750.175 1025.89 750.201 1026.99H747.238ZM754.151 1042V1021.64H761.41C762.994 1021.64 764.307 1021.92 765.347 1022.5C766.388 1023.08 767.167 1023.87 767.684 1024.87C768.201 1025.86 768.46 1026.98 768.46 1028.23C768.46 1029.48 768.198 1030.61 767.674 1031.61C767.157 1032.6 766.375 1033.39 765.327 1033.98C764.287 1034.55 762.978 1034.84 761.4 1034.84H756.408V1032.24H761.121C762.122 1032.24 762.934 1032.06 763.558 1031.72C764.181 1031.37 764.638 1030.89 764.93 1030.29C765.221 1029.68 765.367 1029 765.367 1028.23C765.367 1027.46 765.221 1026.78 764.93 1026.18C764.638 1025.58 764.177 1025.12 763.548 1024.78C762.924 1024.44 762.103 1024.27 761.082 1024.27H757.224V1042H754.151ZM772.061 1042V1021.64H779.32C780.904 1021.64 782.217 1021.92 783.257 1022.5C784.298 1023.08 785.077 1023.87 785.594 1024.87C786.111 1025.86 786.37 1026.98 786.37 1028.23C786.37 1029.48 786.108 1030.61 785.584 1031.61C785.067 1032.6 784.285 1033.39 783.238 1033.98C782.197 1034.55 780.888 1034.84 779.31 1034.84H774.319V1032.24H779.032C780.033 1032.24 780.845 1032.06 781.468 1031.72C782.091 1031.37 782.548 1030.89 782.84 1030.29C783.132 1029.68 783.277 1029 783.277 1028.23C783.277 1027.46 783.132 1026.78 782.84 1026.18C782.548 1025.58 782.087 1025.12 781.458 1024.78C780.835 1024.44 780.013 1024.27 778.992 1024.27H775.134V1042H772.061ZM789.972 1042V1021.64H802.739V1024.28H793.044V1030.49H802.072V1033.12H793.044V1039.36H802.858V1042H789.972ZM806.843 1042V1021.64H814.101C815.679 1021.64 816.988 1021.91 818.029 1022.45C819.076 1023 819.858 1023.75 820.375 1024.71C820.892 1025.66 821.151 1026.77 821.151 1028.02C821.151 1029.27 820.889 1030.36 820.365 1031.31C819.848 1032.25 819.066 1032.98 818.019 1033.51C816.978 1034.03 815.669 1034.29 814.091 1034.29H808.593V1031.65H813.813C814.807 1031.65 815.616 1031.51 816.239 1031.22C816.869 1030.94 817.329 1030.52 817.621 1029.98C817.913 1029.44 818.059 1028.78 818.059 1028.02C818.059 1027.25 817.909 1026.58 817.611 1026.02C817.319 1025.46 816.859 1025.03 816.229 1024.73C815.606 1024.42 814.787 1024.27 813.773 1024.27H809.915V1042H806.843ZM816.895 1032.81L821.926 1042H818.426L813.495 1032.81H816.895Z" fill="white"/>
<path opacity="0.32" d="M924.151 1028.26H921.048C920.929 1027.6 920.707 1027.01 920.382 1026.51C920.057 1026 919.66 1025.58 919.189 1025.23C918.718 1024.87 918.191 1024.61 917.608 1024.43C917.031 1024.25 916.418 1024.16 915.768 1024.16C914.595 1024.16 913.545 1024.46 912.616 1025.05C911.695 1025.64 910.966 1026.5 910.429 1027.64C909.899 1028.78 909.634 1030.17 909.634 1031.82C909.634 1033.48 909.899 1034.87 910.429 1036.01C910.966 1037.15 911.698 1038.02 912.626 1038.6C913.554 1039.18 914.598 1039.47 915.759 1039.47C916.402 1039.47 917.011 1039.39 917.588 1039.22C918.171 1039.04 918.698 1038.78 919.169 1038.43C919.64 1038.09 920.037 1037.66 920.362 1037.17C920.694 1036.66 920.922 1036.09 921.048 1035.44L924.151 1035.45C923.985 1036.45 923.663 1037.37 923.186 1038.21C922.715 1039.05 922.109 1039.77 921.366 1040.38C920.631 1040.98 919.789 1041.45 918.841 1041.78C917.893 1042.11 916.859 1042.28 915.739 1042.28C913.975 1042.28 912.404 1041.86 911.026 1041.03C909.647 1040.18 908.56 1038.98 907.764 1037.42C906.975 1035.85 906.581 1033.99 906.581 1031.82C906.581 1029.64 906.979 1027.78 907.774 1026.22C908.57 1024.66 909.657 1023.46 911.036 1022.62C912.414 1021.78 913.982 1021.36 915.739 1021.36C916.819 1021.36 917.827 1021.51 918.761 1021.83C919.703 1022.13 920.548 1022.58 921.297 1023.18C922.046 1023.77 922.666 1024.49 923.156 1025.35C923.647 1026.19 923.978 1027.16 924.151 1028.26ZM929.411 1042H926.149L933.477 1021.64H937.027L944.355 1042H941.094L935.337 1025.34H935.178L929.411 1042ZM929.957 1034.03H940.537V1036.61H929.957V1034.03ZM958.238 1026.99C958.132 1026.04 957.695 1025.32 956.926 1024.8C956.157 1024.27 955.189 1024.01 954.022 1024.01C953.187 1024.01 952.465 1024.15 951.855 1024.41C951.245 1024.67 950.771 1025.03 950.433 1025.48C950.101 1025.94 949.936 1026.45 949.936 1027.03C949.936 1027.51 950.048 1027.93 950.274 1028.28C950.506 1028.63 950.807 1028.92 951.179 1029.16C951.556 1029.4 951.961 1029.59 952.392 1029.75C952.823 1029.9 953.237 1030.03 953.635 1030.13L955.623 1030.64C956.273 1030.8 956.939 1031.02 957.622 1031.29C958.305 1031.56 958.938 1031.92 959.521 1032.37C960.104 1032.81 960.575 1033.36 960.933 1034.02C961.297 1034.67 961.48 1035.46 961.48 1036.37C961.48 1037.53 961.181 1038.55 960.585 1039.44C959.995 1040.34 959.136 1041.05 958.01 1041.56C956.889 1042.08 955.534 1042.34 953.943 1042.34C952.418 1042.34 951.099 1042.1 949.985 1041.61C948.872 1041.13 948 1040.44 947.37 1039.55C946.741 1038.66 946.393 1037.6 946.326 1036.37H949.409C949.468 1037.11 949.707 1037.72 950.125 1038.21C950.549 1038.7 951.089 1039.06 951.745 1039.3C952.408 1039.53 953.134 1039.64 953.923 1039.64C954.791 1039.64 955.564 1039.51 956.24 1039.24C956.922 1038.96 957.459 1038.57 957.85 1038.08C958.242 1037.59 958.437 1037.01 958.437 1036.34C958.437 1035.74 958.265 1035.25 957.92 1034.86C957.582 1034.48 957.121 1034.16 956.538 1033.91C955.961 1033.65 955.308 1033.43 954.579 1033.24L952.173 1032.58C950.542 1032.14 949.25 1031.49 948.295 1030.62C947.347 1029.76 946.873 1028.62 946.873 1027.2C946.873 1026.03 947.191 1025.01 947.828 1024.13C948.464 1023.26 949.326 1022.58 950.413 1022.09C951.5 1021.6 952.726 1021.36 954.092 1021.36C955.471 1021.36 956.687 1021.6 957.741 1022.08C958.802 1022.57 959.637 1023.23 960.247 1024.08C960.857 1024.92 961.175 1025.89 961.201 1026.99H958.238ZM965.151 1042V1021.64H972.41C973.994 1021.64 975.307 1021.92 976.347 1022.5C977.388 1023.08 978.167 1023.87 978.684 1024.87C979.201 1025.86 979.46 1026.98 979.46 1028.23C979.46 1029.48 979.198 1030.61 978.674 1031.61C978.157 1032.6 977.375 1033.39 976.327 1033.98C975.287 1034.55 973.978 1034.84 972.4 1034.84H967.408V1032.24H972.121C973.122 1032.24 973.934 1032.06 974.558 1031.72C975.181 1031.37 975.638 1030.89 975.93 1030.29C976.221 1029.68 976.367 1029 976.367 1028.23C976.367 1027.46 976.221 1026.78 975.93 1026.18C975.638 1025.58 975.177 1025.12 974.548 1024.78C973.924 1024.44 973.103 1024.27 972.082 1024.27H968.224V1042H965.151ZM983.061 1042V1021.64H990.32C991.904 1021.64 993.217 1021.92 994.257 1022.5C995.298 1023.08 996.077 1023.87 996.594 1024.87C997.111 1025.86 997.37 1026.98 997.37 1028.23C997.37 1029.48 997.108 1030.61 996.584 1031.61C996.067 1032.6 995.285 1033.39 994.238 1033.98C993.197 1034.55 991.888 1034.84 990.31 1034.84H985.319V1032.24H990.032C991.033 1032.24 991.845 1032.06 992.468 1031.72C993.091 1031.37 993.548 1030.89 993.84 1030.29C994.132 1029.68 994.277 1029 994.277 1028.23C994.277 1027.46 994.132 1026.78 993.84 1026.18C993.548 1025.58 993.087 1025.12 992.458 1024.78C991.835 1024.44 991.013 1024.27 989.992 1024.27H986.134V1042H983.061ZM1000.97 1042V1021.64H1013.74V1024.28H1004.04V1030.49H1013.07V1033.12H1004.04V1039.36H1013.86V1042H1000.97ZM1017.84 1042V1021.64H1025.1C1026.68 1021.64 1027.99 1021.91 1029.03 1022.45C1030.08 1023 1030.86 1023.75 1031.38 1024.71C1031.89 1025.66 1032.15 1026.77 1032.15 1028.02C1032.15 1029.27 1031.89 1030.36 1031.37 1031.31C1030.85 1032.25 1030.07 1032.98 1029.02 1033.51C1027.98 1034.03 1026.67 1034.29 1025.09 1034.29H1019.59V1031.65H1024.81C1025.81 1031.65 1026.62 1031.51 1027.24 1031.22C1027.87 1030.94 1028.33 1030.52 1028.62 1029.98C1028.91 1029.44 1029.06 1028.78 1029.06 1028.02C1029.06 1027.25 1028.91 1026.58 1028.61 1026.02C1028.32 1025.46 1027.86 1025.03 1027.23 1024.73C1026.61 1024.42 1025.79 1024.27 1024.77 1024.27H1020.92V1042H1017.84ZM1027.9 1032.81L1032.93 1042H1029.43L1024.49 1032.81H1027.9Z" fill="white"/>
<path opacity="0.32" d="M1135.15 1028.26H1132.05C1131.93 1027.6 1131.71 1027.01 1131.38 1026.51C1131.06 1026 1130.66 1025.58 1130.19 1025.23C1129.72 1024.87 1129.19 1024.61 1128.61 1024.43C1128.03 1024.25 1127.42 1024.16 1126.77 1024.16C1125.6 1024.16 1124.54 1024.46 1123.62 1025.05C1122.7 1025.64 1121.97 1026.5 1121.43 1027.64C1120.9 1028.78 1120.63 1030.17 1120.63 1031.82C1120.63 1033.48 1120.9 1034.87 1121.43 1036.01C1121.97 1037.15 1122.7 1038.02 1123.63 1038.6C1124.55 1039.18 1125.6 1039.47 1126.76 1039.47C1127.4 1039.47 1128.01 1039.39 1128.59 1039.22C1129.17 1039.04 1129.7 1038.78 1130.17 1038.43C1130.64 1038.09 1131.04 1037.66 1131.36 1037.17C1131.69 1036.66 1131.92 1036.09 1132.05 1035.44L1135.15 1035.45C1134.98 1036.45 1134.66 1037.37 1134.19 1038.21C1133.72 1039.05 1133.11 1039.77 1132.37 1040.38C1131.63 1040.98 1130.79 1041.45 1129.84 1041.78C1128.89 1042.11 1127.86 1042.28 1126.74 1042.28C1124.98 1042.28 1123.4 1041.86 1122.03 1041.03C1120.65 1040.18 1119.56 1038.98 1118.76 1037.42C1117.98 1035.85 1117.58 1033.99 1117.58 1031.82C1117.58 1029.64 1117.98 1027.78 1118.77 1026.22C1119.57 1024.66 1120.66 1023.46 1122.04 1022.62C1123.41 1021.78 1124.98 1021.36 1126.74 1021.36C1127.82 1021.36 1128.83 1021.51 1129.76 1021.83C1130.7 1022.13 1131.55 1022.58 1132.3 1023.18C1133.05 1023.77 1133.67 1024.49 1134.16 1025.35C1134.65 1026.19 1134.98 1027.16 1135.15 1028.26ZM1140.41 1042H1137.15L1144.48 1021.64H1148.03L1155.36 1042H1152.09L1146.34 1025.34H1146.18L1140.41 1042ZM1140.96 1034.03H1151.54V1036.61H1140.96V1034.03ZM1169.24 1026.99C1169.13 1026.04 1168.69 1025.32 1167.93 1024.8C1167.16 1024.27 1166.19 1024.01 1165.02 1024.01C1164.19 1024.01 1163.46 1024.15 1162.85 1024.41C1162.24 1024.67 1161.77 1025.03 1161.43 1025.48C1161.1 1025.94 1160.94 1026.45 1160.94 1027.03C1160.94 1027.51 1161.05 1027.93 1161.27 1028.28C1161.51 1028.63 1161.81 1028.92 1162.18 1029.16C1162.56 1029.4 1162.96 1029.59 1163.39 1029.75C1163.82 1029.9 1164.24 1030.03 1164.63 1030.13L1166.62 1030.64C1167.27 1030.8 1167.94 1031.02 1168.62 1031.29C1169.3 1031.56 1169.94 1031.92 1170.52 1032.37C1171.1 1032.81 1171.57 1033.36 1171.93 1034.02C1172.3 1034.67 1172.48 1035.46 1172.48 1036.37C1172.48 1037.53 1172.18 1038.55 1171.58 1039.44C1170.99 1040.34 1170.14 1041.05 1169.01 1041.56C1167.89 1042.08 1166.53 1042.34 1164.94 1042.34C1163.42 1042.34 1162.1 1042.1 1160.99 1041.61C1159.87 1041.13 1159 1040.44 1158.37 1039.55C1157.74 1038.66 1157.39 1037.6 1157.33 1036.37H1160.41C1160.47 1037.11 1160.71 1037.72 1161.12 1038.21C1161.55 1038.7 1162.09 1039.06 1162.75 1039.3C1163.41 1039.53 1164.13 1039.64 1164.92 1039.64C1165.79 1039.64 1166.56 1039.51 1167.24 1039.24C1167.92 1038.96 1168.46 1038.57 1168.85 1038.08C1169.24 1037.59 1169.44 1037.01 1169.44 1036.34C1169.44 1035.74 1169.26 1035.25 1168.92 1034.86C1168.58 1034.48 1168.12 1034.16 1167.54 1033.91C1166.96 1033.65 1166.31 1033.43 1165.58 1033.24L1163.17 1032.58C1161.54 1032.14 1160.25 1031.49 1159.3 1030.62C1158.35 1029.76 1157.87 1028.62 1157.87 1027.2C1157.87 1026.03 1158.19 1025.01 1158.83 1024.13C1159.46 1023.26 1160.33 1022.58 1161.41 1022.09C1162.5 1021.6 1163.73 1021.36 1165.09 1021.36C1166.47 1021.36 1167.69 1021.6 1168.74 1022.08C1169.8 1022.57 1170.64 1023.23 1171.25 1024.08C1171.86 1024.92 1172.17 1025.89 1172.2 1026.99H1169.24ZM1176.15 1042V1021.64H1183.41C1184.99 1021.64 1186.31 1021.92 1187.35 1022.5C1188.39 1023.08 1189.17 1023.87 1189.68 1024.87C1190.2 1025.86 1190.46 1026.98 1190.46 1028.23C1190.46 1029.48 1190.2 1030.61 1189.67 1031.61C1189.16 1032.6 1188.37 1033.39 1187.33 1033.98C1186.29 1034.55 1184.98 1034.84 1183.4 1034.84H1178.41V1032.24H1183.12C1184.12 1032.24 1184.93 1032.06 1185.56 1031.72C1186.18 1031.37 1186.64 1030.89 1186.93 1030.29C1187.22 1029.68 1187.37 1029 1187.37 1028.23C1187.37 1027.46 1187.22 1026.78 1186.93 1026.18C1186.64 1025.58 1186.18 1025.12 1185.55 1024.78C1184.92 1024.44 1184.1 1024.27 1183.08 1024.27H1179.22V1042H1176.15ZM1194.06 1042V1021.64H1201.32C1202.9 1021.64 1204.22 1021.92 1205.26 1022.5C1206.3 1023.08 1207.08 1023.87 1207.59 1024.87C1208.11 1025.86 1208.37 1026.98 1208.37 1028.23C1208.37 1029.48 1208.11 1030.61 1207.58 1031.61C1207.07 1032.6 1206.28 1033.39 1205.24 1033.98C1204.2 1034.55 1202.89 1034.84 1201.31 1034.84H1196.32V1032.24H1201.03C1202.03 1032.24 1202.84 1032.06 1203.47 1031.72C1204.09 1031.37 1204.55 1030.89 1204.84 1030.29C1205.13 1029.68 1205.28 1029 1205.28 1028.23C1205.28 1027.46 1205.13 1026.78 1204.84 1026.18C1204.55 1025.58 1204.09 1025.12 1203.46 1024.78C1202.83 1024.44 1202.01 1024.27 1200.99 1024.27H1197.13V1042H1194.06ZM1211.97 1042V1021.64H1224.74V1024.28H1215.04V1030.49H1224.07V1033.12H1215.04V1039.36H1224.86V1042H1211.97ZM1228.84 1042V1021.64H1236.1C1237.68 1021.64 1238.99 1021.91 1240.03 1022.45C1241.08 1023 1241.86 1023.75 1242.38 1024.71C1242.89 1025.66 1243.15 1026.77 1243.15 1028.02C1243.15 1029.27 1242.89 1030.36 1242.37 1031.31C1241.85 1032.25 1241.07 1032.98 1240.02 1033.51C1238.98 1034.03 1237.67 1034.29 1236.09 1034.29H1230.59V1031.65H1235.81C1236.81 1031.65 1237.62 1031.51 1238.24 1031.22C1238.87 1030.94 1239.33 1030.52 1239.62 1029.98C1239.91 1029.44 1240.06 1028.78 1240.06 1028.02C1240.06 1027.25 1239.91 1026.58 1239.61 1026.02C1239.32 1025.46 1238.86 1025.03 1238.23 1024.73C1237.61 1024.42 1236.79 1024.27 1235.77 1024.27H1231.92V1042H1228.84ZM1238.9 1032.81L1243.93 1042H1240.43L1235.49 1032.81H1238.9Z" fill="white"/>
<path opacity="0.32" d="M1346.15 1028.26H1343.05C1342.93 1027.6 1342.71 1027.01 1342.38 1026.51C1342.06 1026 1341.66 1025.58 1341.19 1025.23C1340.72 1024.87 1340.19 1024.61 1339.61 1024.43C1339.03 1024.25 1338.42 1024.16 1337.77 1024.16C1336.6 1024.16 1335.54 1024.46 1334.62 1025.05C1333.7 1025.64 1332.97 1026.5 1332.43 1027.64C1331.9 1028.78 1331.63 1030.17 1331.63 1031.82C1331.63 1033.48 1331.9 1034.87 1332.43 1036.01C1332.97 1037.15 1333.7 1038.02 1334.63 1038.6C1335.55 1039.18 1336.6 1039.47 1337.76 1039.47C1338.4 1039.47 1339.01 1039.39 1339.59 1039.22C1340.17 1039.04 1340.7 1038.78 1341.17 1038.43C1341.64 1038.09 1342.04 1037.66 1342.36 1037.17C1342.69 1036.66 1342.92 1036.09 1343.05 1035.44L1346.15 1035.45C1345.98 1036.45 1345.66 1037.37 1345.19 1038.21C1344.72 1039.05 1344.11 1039.77 1343.37 1040.38C1342.63 1040.98 1341.79 1041.45 1340.84 1041.78C1339.89 1042.11 1338.86 1042.28 1337.74 1042.28C1335.98 1042.28 1334.4 1041.86 1333.03 1041.03C1331.65 1040.18 1330.56 1038.98 1329.76 1037.42C1328.98 1035.85 1328.58 1033.99 1328.58 1031.82C1328.58 1029.64 1328.98 1027.78 1329.77 1026.22C1330.57 1024.66 1331.66 1023.46 1333.04 1022.62C1334.41 1021.78 1335.98 1021.36 1337.74 1021.36C1338.82 1021.36 1339.83 1021.51 1340.76 1021.83C1341.7 1022.13 1342.55 1022.58 1343.3 1023.18C1344.05 1023.77 1344.67 1024.49 1345.16 1025.35C1345.65 1026.19 1345.98 1027.16 1346.15 1028.26ZM1351.41 1042H1348.15L1355.48 1021.64H1359.03L1366.36 1042H1363.09L1357.34 1025.34H1357.18L1351.41 1042ZM1351.96 1034.03H1362.54V1036.61H1351.96V1034.03ZM1380.24 1026.99C1380.13 1026.04 1379.69 1025.32 1378.93 1024.8C1378.16 1024.27 1377.19 1024.01 1376.02 1024.01C1375.19 1024.01 1374.46 1024.15 1373.85 1024.41C1373.24 1024.67 1372.77 1025.03 1372.43 1025.48C1372.1 1025.94 1371.94 1026.45 1371.94 1027.03C1371.94 1027.51 1372.05 1027.93 1372.27 1028.28C1372.51 1028.63 1372.81 1028.92 1373.18 1029.16C1373.56 1029.4 1373.96 1029.59 1374.39 1029.75C1374.82 1029.9 1375.24 1030.03 1375.63 1030.13L1377.62 1030.64C1378.27 1030.8 1378.94 1031.02 1379.62 1031.29C1380.3 1031.56 1380.94 1031.92 1381.52 1032.37C1382.1 1032.81 1382.57 1033.36 1382.93 1034.02C1383.3 1034.67 1383.48 1035.46 1383.48 1036.37C1383.48 1037.53 1383.18 1038.55 1382.58 1039.44C1381.99 1040.34 1381.14 1041.05 1380.01 1041.56C1378.89 1042.08 1377.53 1042.34 1375.94 1042.34C1374.42 1042.34 1373.1 1042.1 1371.99 1041.61C1370.87 1041.13 1370 1040.44 1369.37 1039.55C1368.74 1038.66 1368.39 1037.6 1368.33 1036.37H1371.41C1371.47 1037.11 1371.71 1037.72 1372.12 1038.21C1372.55 1038.7 1373.09 1039.06 1373.75 1039.3C1374.41 1039.53 1375.13 1039.64 1375.92 1039.64C1376.79 1039.64 1377.56 1039.51 1378.24 1039.24C1378.92 1038.96 1379.46 1038.57 1379.85 1038.08C1380.24 1037.59 1380.44 1037.01 1380.44 1036.34C1380.44 1035.74 1380.26 1035.25 1379.92 1034.86C1379.58 1034.48 1379.12 1034.16 1378.54 1033.91C1377.96 1033.65 1377.31 1033.43 1376.58 1033.24L1374.17 1032.58C1372.54 1032.14 1371.25 1031.49 1370.3 1030.62C1369.35 1029.76 1368.87 1028.62 1368.87 1027.2C1368.87 1026.03 1369.19 1025.01 1369.83 1024.13C1370.46 1023.26 1371.33 1022.58 1372.41 1022.09C1373.5 1021.6 1374.73 1021.36 1376.09 1021.36C1377.47 1021.36 1378.69 1021.6 1379.74 1022.08C1380.8 1022.57 1381.64 1023.23 1382.25 1024.08C1382.86 1024.92 1383.17 1025.89 1383.2 1026.99H1380.24ZM1387.15 1042V1021.64H1394.41C1395.99 1021.64 1397.31 1021.92 1398.35 1022.5C1399.39 1023.08 1400.17 1023.87 1400.68 1024.87C1401.2 1025.86 1401.46 1026.98 1401.46 1028.23C1401.46 1029.48 1401.2 1030.61 1400.67 1031.61C1400.16 1032.6 1399.37 1033.39 1398.33 1033.98C1397.29 1034.55 1395.98 1034.84 1394.4 1034.84H1389.41V1032.24H1394.12C1395.12 1032.24 1395.93 1032.06 1396.56 1031.72C1397.18 1031.37 1397.64 1030.89 1397.93 1030.29C1398.22 1029.68 1398.37 1029 1398.37 1028.23C1398.37 1027.46 1398.22 1026.78 1397.93 1026.18C1397.64 1025.58 1397.18 1025.12 1396.55 1024.78C1395.92 1024.44 1395.1 1024.27 1394.08 1024.27H1390.22V1042H1387.15ZM1405.06 1042V1021.64H1412.32C1413.9 1021.64 1415.22 1021.92 1416.26 1022.5C1417.3 1023.08 1418.08 1023.87 1418.59 1024.87C1419.11 1025.86 1419.37 1026.98 1419.37 1028.23C1419.37 1029.48 1419.11 1030.61 1418.58 1031.61C1418.07 1032.6 1417.28 1033.39 1416.24 1033.98C1415.2 1034.55 1413.89 1034.84 1412.31 1034.84H1407.32V1032.24H1412.03C1413.03 1032.24 1413.84 1032.06 1414.47 1031.72C1415.09 1031.37 1415.55 1030.89 1415.84 1030.29C1416.13 1029.68 1416.28 1029 1416.28 1028.23C1416.28 1027.46 1416.13 1026.78 1415.84 1026.18C1415.55 1025.58 1415.09 1025.12 1414.46 1024.78C1413.83 1024.44 1413.01 1024.27 1411.99 1024.27H1408.13V1042H1405.06ZM1422.97 1042V1021.64H1435.74V1024.28H1426.04V1030.49H1435.07V1033.12H1426.04V1039.36H1435.86V1042H1422.97ZM1439.84 1042V1021.64H1447.1C1448.68 1021.64 1449.99 1021.91 1451.03 1022.45C1452.08 1023 1452.86 1023.75 1453.38 1024.71C1453.89 1025.66 1454.15 1026.77 1454.15 1028.02C1454.15 1029.27 1453.89 1030.36 1453.37 1031.31C1452.85 1032.25 1452.07 1032.98 1451.02 1033.51C1449.98 1034.03 1448.67 1034.29 1447.09 1034.29H1441.59V1031.65H1446.81C1447.81 1031.65 1448.62 1031.51 1449.24 1031.22C1449.87 1030.94 1450.33 1030.52 1450.62 1029.98C1450.91 1029.44 1451.06 1028.78 1451.06 1028.02C1451.06 1027.25 1450.91 1026.58 1450.61 1026.02C1450.32 1025.46 1449.86 1025.03 1449.23 1024.73C1448.61 1024.42 1447.79 1024.27 1446.77 1024.27H1442.92V1042H1439.84ZM1449.9 1032.81L1454.93 1042H1451.43L1446.49 1032.81H1449.9Z" fill="white"/>
<path d="M136.5 174.491L136.5 154.676C142.2 153.504 147.207 151.453 151.521 148.524C155.836 145.647 159.458 142.132 162.388 137.977C165.371 133.875 167.608 129.321 169.099 124.314C170.591 119.307 171.337 114.087 171.337 108.653C171.337 98.7457 168.833 89.7702 163.826 81.7269C158.819 73.7369 151.441 67.3714 141.694 62.6307C131.946 57.9432 119.987 55.5994 105.818 55.5994C91.6491 55.5994 79.6907 57.9432 69.9428 62.6307C60.195 67.3714 52.8175 73.7369 47.8104 81.7269C42.8033 89.7702 40.2997 98.7457 40.2997 108.653C40.2997 114.087 41.0455 119.307 42.5369 124.314C44.0284 129.321 46.239 133.875 49.1687 137.977C52.1516 142.132 55.8004 145.647 60.1151 148.524C64.483 151.453 69.4901 153.504 75.1364 154.676L75.1364 174.491C66.7734 173 59.2894 170.283 52.6843 166.342C46.0792 162.4 40.4595 157.499 35.8253 151.64C31.2443 145.781 27.7553 139.202 25.3583 131.904C22.9613 124.66 21.7628 116.91 21.7628 108.653C21.7628 94.6974 25.1719 82.2862 31.9901 71.4197C38.8082 60.5533 48.5028 52.0039 61.0739 45.7717C73.6449 39.5394 88.5597 36.4233 105.818 36.4233C123.077 36.4233 137.991 39.5394 150.562 45.7717C163.134 52.0039 172.828 60.5533 179.646 71.4197C186.464 82.2862 189.874 94.6974 189.874 108.653C189.874 116.91 188.675 124.66 186.278 131.904C183.881 139.202 180.365 145.781 175.731 151.64C171.15 157.499 165.557 162.4 158.952 166.342C152.4 170.283 144.916 173 136.5 174.491ZM24 213.223L24 192.449L187.636 252.534L187.636 272.989L24 333.074L24 312.3L161.749 263.401L161.749 262.122L24 213.223ZM87.9204 220.894L87.9204 304.63L70.3423 304.63L70.3423 220.894L87.9204 220.894ZM146.727 448.051C154.824 447.092 161.109 443.204 165.584 436.386C170.058 429.567 172.295 421.204 172.295 411.297C172.295 404.052 171.124 397.714 168.78 392.28C166.436 386.9 163.213 382.692 159.112 379.656C155.01 376.673 150.349 375.182 145.129 375.182C140.761 375.182 137.006 376.22 133.863 378.298C130.774 380.429 128.19 383.145 126.113 386.448C124.089 389.75 122.411 393.213 121.079 396.835C119.801 400.457 118.762 403.786 117.963 406.822L113.489 423.442C112.37 427.703 110.825 432.444 108.854 437.664C106.884 442.937 104.194 447.971 100.784 452.765C97.4286 457.612 93.114 461.608 87.8405 464.75C82.5671 467.893 76.0952 469.464 68.4247 469.464C59.5824 469.464 51.5923 467.147 44.4545 462.513C37.3167 457.932 31.6438 451.22 27.4357 442.378C23.2276 433.589 21.1236 422.909 21.1236 410.338C21.1236 398.619 23.0145 388.472 26.7965 379.896C30.5785 371.373 35.8519 364.661 42.6168 359.761C49.3817 354.914 57.2386 352.17 66.1875 351.531L66.1875 371.986C60.0085 372.518 54.8949 374.596 50.8466 378.218C46.8515 381.893 43.8686 386.528 41.8977 392.121C39.9801 397.767 39.0213 403.839 39.0213 410.338C39.0213 417.902 40.2464 424.693 42.6967 430.713C45.2003 436.732 48.6626 441.499 53.0838 445.015C57.5582 448.53 62.7784 450.288 68.7443 450.288C74.1775 450.288 78.5987 448.77 82.0078 445.734C85.4169 442.698 88.1868 438.703 90.3175 433.749C92.4481 428.795 94.3125 423.442 95.9105 417.689L101.663 397.554C105.339 384.77 110.586 374.649 117.404 367.192C124.222 359.734 133.144 356.006 144.17 356.006C153.332 356.006 161.322 358.483 168.141 363.436C175.012 368.443 180.339 375.155 184.121 383.571C187.956 392.041 189.874 401.496 189.874 411.936C189.874 422.483 187.983 431.858 184.201 440.061C180.472 448.264 175.358 454.763 168.86 459.557C162.361 464.404 154.984 466.961 146.727 467.227L146.727 448.051ZM24 502.044L187.636 502.044L187.636 557.335C187.636 570.172 185.319 580.666 180.685 588.816C176.104 597.019 169.898 603.091 162.068 607.033C154.238 610.975 145.502 612.946 135.861 612.946C126.219 612.946 117.457 610.975 109.573 607.033C101.69 603.145 95.4045 597.126 90.717 588.976C86.0827 580.826 83.7656 570.385 83.7656 557.655L83.7656 518.024L101.344 518.024L101.344 557.015C101.344 565.805 102.862 572.862 105.898 578.189C108.934 583.516 113.036 587.378 118.203 589.775C123.423 592.225 129.309 593.45 135.861 593.45C142.413 593.45 148.272 592.225 153.439 589.775C158.606 587.378 162.654 583.489 165.584 578.109C168.567 572.729 170.058 565.591 170.058 556.696L170.058 521.859L24 521.859L24 502.044ZM24 644.866L187.636 644.866L187.636 700.157C187.636 712.995 185.319 723.488 180.685 731.638C176.104 739.841 169.898 745.914 162.068 749.855C154.238 753.797 145.502 755.768 135.861 755.768C126.219 755.768 117.457 753.797 109.573 749.855C101.69 745.967 95.4044 739.948 90.7169 731.798C86.0827 723.648 83.7656 713.208 83.7656 700.477L83.7656 660.846L101.344 660.846L101.344 699.838C101.344 708.627 102.862 715.685 105.898 721.011C108.934 726.338 113.036 730.2 118.203 732.597C123.423 735.047 129.309 736.272 135.861 736.272C142.413 736.272 148.272 735.047 153.439 732.597C158.606 730.2 162.654 726.311 165.584 720.931C168.567 715.551 170.058 708.414 170.058 699.518L170.058 664.681L24 664.681L24 644.866ZM24 787.688L187.636 787.688L187.636 886.445L170.058 886.445L170.058 807.504L114.767 807.504L114.767 881.332L97.1889 881.332L97.1889 807.504L41.5781 807.504L41.5781 887.724L24 887.724L24 787.688ZM24 922.161L187.636 922.161L187.636 977.452C187.636 990.236 185.452 1000.73 181.084 1008.93C176.77 1017.14 170.831 1023.21 163.267 1027.15C155.703 1031.09 147.1 1033.06 137.459 1033.06C127.817 1033.06 119.268 1031.09 111.811 1027.15C104.353 1023.21 98.4939 1017.16 94.2326 1009.01C90.0245 1000.86 87.9204 990.449 87.9204 977.772L87.9204 933.028L105.818 933.028L105.818 977.133C105.818 985.868 107.097 992.9 109.653 998.226C112.21 1003.61 115.832 1007.49 120.52 1009.89C125.261 1012.34 130.907 1013.57 137.459 1013.57C144.011 1013.57 149.737 1012.34 154.637 1009.89C159.538 1007.44 163.32 1003.53 165.983 998.146C168.7 992.767 170.058 985.655 170.058 976.813L170.058 941.976L24 941.976L24 922.161ZM97.5085 999.185L24 1039.46L24 1016.44L97.5085 976.813L97.5085 999.185Z" fill="white"/>
<defs>
<filter id="filter0_f_0_1" x="157" y="-281" width="1722" height="1722" filterUnits="userSpaceOnUse" color-interpolation-filters="sRGB">
<feFlood flood-opacity="0" result="BackgroundImageFix"/>
<feBlend mode="normal" in="SourceGraphic" in2="BackgroundImageFix" result="shape"/>
<feGaussianBlur stdDeviation="200.5" result="effect1_foregroundBlur_0_1"/>
</filter>
</defs>
</svg>
