<svg width="48" height="48" viewBox="0 0 48 48" fill="none" xmlns="http://www.w3.org/2000/svg">
<path d="M23.9883 4.81192C26.0674 4.81192 27.9797 5.27086 29.6758 6.16544L30.0117 6.35001L30.0146 6.35098C30.9957 6.90468 31.8711 7.61389 32.6211 8.45059V8.45157C33.721 9.70731 34.7802 11.2445 35.1348 14.0932L35.1963 14.6811C35.2762 15.6206 35.2962 16.5742 35.2861 17.4828L35.2793 18.1303L35.9072 17.9731C35.9441 17.9638 35.9842 17.9551 36.0283 17.9447C36.0702 17.9349 36.1161 17.9235 36.1602 17.9125C36.4446 17.8512 36.7215 17.8246 37.0117 17.8246C38.2819 17.8246 39.2988 18.4555 39.7754 19.4701L39.8643 19.6781L39.8652 19.6811C40.161 20.445 40.1333 21.284 39.79 22.0199L39.7168 22.1654L39.7148 22.1693C39.4611 22.6538 39.0635 23.1098 38.4844 23.558L38.2266 23.7484C38.0268 23.8882 37.731 24.0721 37.3154 24.349C37.087 24.4944 36.7562 24.7115 36.4307 24.9252L36.4248 24.9291L36.4189 24.934C36.2708 25.0377 36.1353 25.1679 36.0312 25.3412L36.0176 25.3647L36.0059 25.3891C35.9481 25.5143 35.9105 25.6572 35.9131 25.8246C35.9155 25.9834 35.9543 26.1396 36.0127 26.2953L36.0176 26.309L36.0234 26.3227C36.2408 26.8117 36.5117 27.2862 36.8125 27.727V27.7279C37.8118 29.2017 39.2266 30.4336 40.9941 31.4311L41.3525 31.6273L41.3643 31.6332C41.5481 31.7251 41.7322 31.8167 41.916 31.9086L41.9258 31.9135L41.9365 31.9184L42.2061 32.0639L42.207 32.0648C42.6917 32.3277 43.0656 32.614 43.2959 33.0775L43.3857 33.2875L43.4277 33.4135C43.5964 33.98 43.4786 34.6345 42.9443 35.2504L42.8271 35.3773L42.8174 35.3881L42.8086 35.3959L42.8008 35.4047C42.6 35.6256 42.3686 35.8221 42.1182 35.9857L41.8613 36.1391L41.8574 36.141C41.1934 36.5071 40.4824 36.7997 39.751 37.018L39.4365 37.1068C39.2203 37.1618 39.001 37.2576 38.8047 37.3979L38.7842 37.4125L38.7646 37.4301C38.5336 37.6345 38.4342 37.8797 38.3652 38.06C38.2931 38.2487 38.2409 38.4064 38.125 38.601L38.1211 38.6068L38.1172 38.6137C37.9536 38.9082 37.7224 39.1593 37.4326 39.3647C36.9159 39.7219 36.3491 39.8318 35.6729 39.8822L34.9619 39.9193C34.1826 39.9462 33.2624 39.9813 32.2285 40.2592L31.7783 40.394L31.7773 40.3949C31.3828 40.5264 30.9759 40.7525 30.5654 40.9984L30.1543 41.2484L30.1533 41.2494C28.7806 42.0872 26.9902 43.1879 23.9785 43.1879C20.9681 43.1879 19.1879 42.0981 17.8281 41.2621H17.8291C17.3431 40.9583 16.8625 40.6553 16.3799 40.4662L16.1738 40.393C14.948 39.9921 13.886 39.9501 12.9951 39.9193H12.9941C12.0511 39.88 11.3101 39.8449 10.6543 39.4486L10.5244 39.3647C10.346 39.2364 10.1846 39.0868 10.0498 38.9203L9.92285 38.7465L9.91797 38.7397L9.81543 38.5727C9.72591 38.4119 9.67253 38.2674 9.61621 38.1176C9.54514 37.9284 9.44494 37.6481 9.1875 37.4262L9.16406 37.4057L9.13867 37.3891L8.98438 37.2953C8.8804 37.2382 8.77347 37.191 8.66309 37.1518L8.49414 37.0981L8.49023 37.0971L8.17676 37.0082C7.55446 36.8216 6.95488 36.5805 6.38184 36.2895L6.09766 36.14L6.0957 36.1391L5.85254 35.9945C5.61406 35.8403 5.39237 35.6583 5.19629 35.4555H5.19727C4.50509 34.737 4.36949 33.9533 4.6123 33.2875L4.61133 33.2865C4.87069 32.5922 5.35928 32.2816 6.03223 31.933L6.76758 31.5561L6.77148 31.5531C8.64581 30.5317 10.1413 29.2463 11.1846 27.7191L11.1836 27.7182C11.4873 27.2835 11.7471 26.8197 11.9619 26.3471L11.9736 26.3197C12.0362 26.1571 12.0782 25.9963 12.083 25.8344C12.0869 25.7045 12.0665 25.5902 12.0312 25.4877L11.9912 25.3891L11.9775 25.3588L11.959 25.3305L11.8701 25.2055C11.7746 25.0862 11.6609 24.9839 11.5303 24.9008H11.5293L10.6914 24.3549L10.6865 24.352L9.77051 23.7484H9.76953C9.13915 23.3026 8.69561 22.8515 8.40039 22.3754L8.28223 22.1693L8.28027 22.1654L8.20801 22.0199C7.88754 21.3329 7.84123 20.5562 8.07715 19.8344L8.13281 19.6811V19.6791C8.56336 18.5511 9.6326 17.8247 10.9854 17.8246C11.1993 17.8246 11.416 17.8404 11.627 17.8744L11.8359 17.9145L11.8379 17.9154C11.9223 17.9342 11.998 17.9525 12.0801 17.9731L12.708 18.1303L12.7012 17.4828C12.6911 16.5748 12.7112 15.622 12.791 14.683C13.0759 11.4605 14.1942 9.78965 15.3662 8.45157L15.3652 8.45059C16.0215 7.71835 16.7743 7.08404 17.6094 6.56583L17.9727 6.35098L17.9756 6.35001C19.7539 5.33386 21.7712 4.81196 23.9883 4.81192ZM24.0195 6.06973C19.3336 6.06973 16.8688 8.65613 16.3203 9.28262C15.2202 10.5338 14.2985 11.9797 14.0527 14.809C13.8789 16.7827 14.0249 18.881 14.0879 19.9721C13.8531 19.905 13.5339 19.7745 13.1025 19.6078C12.7747 19.4812 12.4017 19.3435 12.0098 19.2338L11.6123 19.1342L11.5986 19.1313L11.3154 19.0893C11.2183 19.0787 11.1185 19.0717 11.0166 19.0717C10.4184 19.0717 9.72362 19.3004 9.38672 19.9848L9.32422 20.1283L9.32324 20.1293C9.12535 20.648 9.15664 21.1482 9.40039 21.6107C9.62962 22.0458 10.0297 22.4144 10.5039 22.7484L10.792 22.3402L10.5039 22.7494L10.5088 22.7523C10.7894 22.9447 11.4352 23.3549 12.0361 23.7484C12.5097 24.0586 12.9404 24.3486 13.2021 24.5453L13.4033 24.7084L13.4072 24.7113C13.5753 24.8645 13.6069 24.9603 13.6182 25.019C13.6269 25.0648 13.6284 25.1119 13.624 25.1772L13.5947 25.4457V25.4486C13.5945 25.4502 13.5937 25.4562 13.5918 25.4672C13.5896 25.4802 13.5856 25.4977 13.5811 25.5199C13.5719 25.5644 13.5585 25.6248 13.5391 25.6996C13.5001 25.8495 13.4385 26.0552 13.3467 26.3041C13.163 26.8019 12.858 27.4723 12.3672 28.225C11.449 29.6332 9.8736 31.34 7.20117 32.7465L6.65137 33.0238C6.55513 33.0706 6.4138 33.1433 6.2832 33.2406C6.16059 33.3321 5.98805 33.4887 5.9082 33.725C5.81507 34.0007 5.88162 34.2765 6.0498 34.5053C6.16392 34.6604 6.3269 34.7997 6.52734 34.9291L6.74023 35.0561C7.64506 35.5545 8.40015 35.7764 9.02246 35.9438C9.583 36.0945 9.96974 36.1879 10.3008 36.3656L10.4395 36.4477C10.6049 36.5543 10.6637 36.716 10.7148 37.0844C10.7366 37.2412 10.7621 37.4756 10.8223 37.6801C10.8793 37.8736 10.9803 38.0923 11.1797 38.266L11.2715 38.3373C11.5534 38.5338 11.9183 38.598 12.2471 38.6313C12.5863 38.6655 13.0053 38.6748 13.4355 38.6938C14.2084 38.7278 15.1313 38.7965 16.1611 39.0824L16.6094 39.2191H16.6113C17.0961 39.3785 17.5432 39.6147 18.0156 39.8949C18.4712 40.1651 18.9902 40.5025 19.5312 40.8002C20.6567 41.4193 22.0167 41.9516 24.0195 41.9516C26.0222 41.9515 27.3888 41.4164 28.5176 40.7963C29.0615 40.4975 29.5808 40.1604 30.0361 39.89C30.3897 39.6801 30.7274 39.496 31.0752 39.351L31.4277 39.2191H31.4287C32.6404 38.8169 33.7205 38.73 34.6035 38.6898C35.0336 38.6703 35.4527 38.661 35.791 38.6273C36.0777 38.5988 36.3912 38.5474 36.6533 38.4066L36.7627 38.3402L36.7666 38.3373C37.0289 38.1542 37.1517 37.8989 37.2158 37.6772C37.2749 37.4729 37.2983 37.2381 37.3193 37.0824C37.3627 36.7626 37.4135 36.5999 37.5381 36.4926L37.5967 36.4496L37.7383 36.3647C38.0646 36.1881 38.4498 36.0945 39.0117 35.9438C39.5572 35.7974 40.2057 35.6088 40.9658 35.2299L41.2979 35.0561L41.2998 35.0551C41.5972 34.8895 41.8352 34.7099 41.9863 34.5014C42.153 34.2714 42.2172 33.9961 42.126 33.7221C42.047 33.485 41.875 33.3266 41.75 33.2328C41.6837 33.1831 41.615 33.1397 41.5498 33.1029L41.3721 33.0111C38.3662 31.5568 36.6401 29.7165 35.6611 28.2152C35.1703 27.4625 34.8653 26.7912 34.6816 26.2934C34.5899 26.0446 34.5282 25.8397 34.4893 25.6898C34.4698 25.6151 34.4564 25.5547 34.4473 25.5102C34.4427 25.4879 34.4387 25.4694 34.4365 25.4565L34.4336 25.4379V25.4359L34.4043 25.1664C34.4 25.1012 34.4014 25.0541 34.4102 25.0082C34.4186 24.9642 34.4392 24.9001 34.5195 24.8061L34.6211 24.7016C34.8093 24.5306 35.3694 24.1506 36 23.7377C36.3008 23.5407 36.6122 23.3404 36.8828 23.1645L37.5225 22.7397L37.5244 22.7387C37.9986 22.4046 38.3987 22.035 38.6279 21.6C38.841 21.1954 38.8917 20.7621 38.7686 20.3129L38.7051 20.1195L38.7041 20.1176L38.6416 19.975C38.3048 19.2903 37.61 19.0619 37.0117 19.0619C36.8748 19.0619 36.7227 19.0678 36.5625 19.0941L36.416 19.1244C35.8794 19.2406 35.3599 19.4321 34.9238 19.602C34.487 19.7721 34.1693 19.9022 33.9395 19.9633C34.0031 19.0066 34.1239 17.291 34.0381 15.559L33.9863 14.7992C33.7407 11.9698 32.8189 10.524 31.7188 9.27286H31.7178C31.1686 8.64553 28.7046 6.06986 24.0195 6.06973Z" fill="#F8EFEF" stroke="#EDEDED"/>
</svg>
